<svg id="Layer_1" data-name="Layer 1" xmlns="http://www.w3.org/2000/svg" viewBox="0 0 243.02 323.94"><defs><style>.cls-1{fill:#c8812f;}.cls-1,.cls-3,.cls-4,.cls-5,.cls-6,.cls-7,.cls-8,.cls-9{stroke:#000;stroke-miterlimit:10;}.cls-2{fill:#d8b593;}.cls-3,.cls-4,.cls-5{stroke-width:2px;}.cls-4{fill:#736357;}.cls-5{fill:#fff;}.cls-6,.cls-9{fill:none;}.cls-7,.cls-8{fill:#f4ca40;}.cls-8{stroke-width:0.75px;}.cls-9{stroke-width:4px;}.cls-10{fill:#fbec3b;}.cls-11{fill:#fbc13b;}.cls-12,.cls-13{fill:#ff0;}.cls-12{opacity:0.7;}</style></defs><title>cryptodog-logo</title><path class="cls-1" d="M77.5,308.5c.19-6.19,3.39-6.48,6-17,2.1-8.47.41-9.85,3-16s5-6.44,7-12c2.2-6,1.21-10.7,1-15-.48-9.95,3.43-14.28,9-29,6.88-18.18,2.63-16.13,11-43a283,283,0,0,0,8-31c1.73-8.82,2.21-13.79,0-19-2.11-5-5.07-6.4-6-12-.75-4.5.76-6,1-12s-1-9.3-2-14c-3-14.1-.5-24.83,3-40,.78-3.37,2.13-8.52,6-10,1.28-.49,2.69-.52,5,0a29.34,29.34,0,0,1,13,7c13.44,12.93,31,31,31,31h0s5.51-2.41,7-3c6.55-2.6,15.83-2,23,1,4.65,2,6.52,4.11,11,4,2.89-.07,4.07-1,7-2,7.85-2.62,18.87-2.29,27,2,2.8,1.48,4.1,2.81,7,3,4.59.3,8.21-2.6,10-4,0,0,6.17-4.83,21-14,11-6.83,18.35-8.56,24-8,4.32.43,6.17,2,7,3,2.05,2.36,2,5.47,2,7-.26,13.16-.39,19.74-2,25-4.67,15.29-11,17.26-10,27,.49,4.58,2.12,6.26,1,10-1.65,5.53-6.6,6.52-9,13a20.24,20.24,0,0,0-1,8,273.59,273.59,0,0,1-2,33c-.63,4.92-2.75,11.28-7,24-7.41,22.21-9.39,22.18-12,34a138.4,138.4,0,0,0-3,30c0,10.67,1,20,1,20,1.37,12.52,2.95,13.89,2,18-2.3,9.93-14.95,16.74-25,19-19,4.29-23.81-8.84-51-8a113.92,113.92,0,0,0-29,5c-12.82,4.29-13.54,7.6-21,8-15,.8-17.81-12.26-33-13-15.64-.76-22.59,12.61-32,8C80.31,323.47,77.31,314.76,77.5,308.5Z" transform="translate(-76.99 -37.62)"/><path class="cls-2" d="M125,168c2.23-4.58,4.37-9,9-13,3.36-2.94,7.39-5.12,7-6s-5.63.89-6,0,4.71-2.75,10-8c3-3,2.93-3.92,5-5,4.85-2.52,10.63-.16,11,0,7.63,3.24,6,10.73,13,14,6.48,3.05,14-.53,15-1,8.13-4,11-12.83,13-12,1.52.63-.56,5.53,2,8,2,2,5,.46,11,0,11.15-.85,15.31,3.19,19,0,3.25-2.8,2.25-7.85,4-8,2-.18,2.6,6.6,9,11a10,10,0,0,0,4,2c3.79.73,6.5-1.69,16-7,5.56-3.1,6.24-3.17,7-3,3.94.9,3.27,6.85,10,14,1.63,1.73,3.41,3.23,3,4-.71,1.36-7.11-1.53-8,0-.76,1.3,2.79,5.26,5.3,7.46,1.56,1.36,2.87,2.18,2.7,2.54-.37.8-6.94-2.45-8-1s3.58,4.91,6,10c2.77,5.81,2,11.88,0,20a171.1,171.1,0,0,1-13,36c-7.83,14.76-16.51,27.16-29,45-6.46,9.22-10,13.71-13,22-1.59,4.37-2.78,9.12-4,9-2.24-.22-1.49-16.69-4-17s-5.17,15.21-8,15c-3.47-.26-3.92-24-6-24s-2.42,24.45-7,25-10.51-23.57-13-23,1.63,23.35-1,24c-2.94.73-11.17-26.84-15-26-2.58.57-.74,13.53-3,14-2.63.55-6.66-16.65-17-39-7.81-16.89-17-32-17-32-10.22-16.81-13.42-18.39-15-27C117.23,183.91,123.72,170.62,125,168Z" transform="translate(-76.99 -37.62)"/><path class="cls-3" d="M172,128c.42-4,6.58-7.44,11.86-7,7.33.61,13.48,8.66,11.86,13-1.23,3.3-6.82,4.1-9.88,4C179.17,137.77,171.53,132.78,172,128Z" transform="translate(-76.99 -37.62)"/><path class="cls-3" d="M245,131.67a8.84,8.84,0,0,1,6.33-7.39c5-1.28,10.92,2.06,11.6,6.47.5,3.21-1.94,6-4.21,7.39-3.27,2-8.55,2.58-11.61,0C244.44,135.88,244.9,132.42,245,131.67Z" transform="translate(-76.99 -37.62)"/><path class="cls-3" d="M223,192c-7.55-.89-12-5.81-14-8-2.45-2.7-7.42-8.17-6-14,1-4.21,4.88-6.53,9-9,2.66-1.6,6.49-3.9,12-4a21.26,21.26,0,0,1,14,5c1.53,1.32,7.54,6.48,7,14-.37,5.2-3.66,8.61-5,10C233.21,193,223.61,192.07,223,192Z" transform="translate(-76.99 -37.62)"/><path d="M169.09,188a43.17,43.17,0,0,0,8.86,9A41.37,41.37,0,0,0,189,202.73a35.94,35.94,0,0,0,6.07,1.61c1,.19,2.09.25,3.14.36.53.06,1,0,1.58,0a11.86,11.86,0,0,0,1.58-.07,22.15,22.15,0,0,0,6.16-1.41c2-.73,3.86-1.75,5.84-2.63a18,18,0,0,1,6.36-1.82,16.39,16.39,0,0,1,6.65,1,17.47,17.47,0,0,1,3.06,1.45c.95.6,1.87,1.25,2.72,1.91a18,18,0,0,0,5.08,3.24,9.63,9.63,0,0,0,2.84.58,15.09,15.09,0,0,0,3-.08,18,18,0,0,0,5.82-1.73,16.36,16.36,0,0,0,8-9.16l.2.06a15.87,15.87,0,0,1-2.57,6,16.13,16.13,0,0,1-4.87,4.5,18.32,18.32,0,0,1-6.3,2.27A15.31,15.31,0,0,1,240,209a12.38,12.38,0,0,1-3.44-.61,18.4,18.4,0,0,1-5.67-3.63,18.31,18.31,0,0,0-5.15-3.23,16,16,0,0,0-5.91-1.13,18.3,18.3,0,0,0-6,1.25c-2,.73-4,1.56-6,2.25a29.11,29.11,0,0,1-6.31,1.42,34,34,0,0,1-12.95-1,32.3,32.3,0,0,1-19.58-16.26Z" transform="translate(-76.99 -37.62)"/><path class="cls-2" d="M131,116c-1.35.12-4-10.9-5-23-.69-8.45.09-9.45,0-24-.11-17-1.2-20.92,1-22,1.24-.61,3.81-.45,23,20,14.41,15.36,16,18.47,15,20-1.39,2.2-8.26,1.54-13-1-3.44-1.84-5.36-4.46-6-4-1.14.83,4.62,9.66,3,11-1.19,1-5-3.17-7-2-2.64,1.52.32,10.55-1,11s-3.89-7.3-6-7C131.65,95.47,132.82,115.84,131,116Z" transform="translate(-76.99 -37.62)"/><path class="cls-2" d="M271,93.5c-2.34-3.06,8.57-18.16,23.59-26.55,5.07-2.84,12.26-6.85,16-3.94,4.54,3.49,1.68,15-.94,25.57-3.82,15.37-7.51,13.93-9.44,25.57-.32,1.95-.86,5.91-3.77,7.87-2.34,1.58-6.11,1.8-7.55,0-2.83-3.53,4.53-13.39,2.83-14.75-1.52-1.22-8.27,6-9.44,4.92s4.32-8.25,2.83-9.84c-1.31-1.4-6.94,2.79-7.54,2-.95-1.29,12.66-12.44,11.32-14.75S273.26,96.49,271,93.5Z" transform="translate(-76.99 -37.62)"/><path class="cls-4" d="M221,179c-2.16,1.47-6,.44-8-2-1.36-1.65-2.42-4.58-1-7,1.62-2.74,5.57-3.34,8-2C223.78,170.09,224,177,221,179Z" transform="translate(-76.99 -37.62)"/><path class="cls-4" d="M232,178.91c-1.41-1.33-1.34-6.71,0-8.91,1.75-2.88,6-2,6-2h0a6.49,6.49,0,0,1,3,2.42c.85,1.69.14,5-1,6.58s-1.56,2.58-3,3A6.1,6.1,0,0,1,232,178.91Z" transform="translate(-76.99 -37.62)"/><path class="cls-2" d="M176,115c-.67-2.23,4.79-7.21,10-7,2.64.1,4.65,1.52,5,1,.62-.93-5.82-5.3-5-7,.55-1.15,4.22-.59,8,0,5.84.9,8,2.07,9,1,1.62-1.69-1.72-6.54-1-7,.88-.56,7.51,5.68,11,15,1.95,5.2,4.26,11.37,1,16-2.63,3.74-8.35,5.68-12,4-2.22-1-1.89-2.55-5-6a28.46,28.46,0,0,0-10-7C180.48,115.25,176.54,116.77,176,115Z" transform="translate(-76.99 -37.62)"/><path class="cls-2" d="M264.52,118.48c.92-1.93-3-7.28-7.44-7.85-2.28-.29-4.21.71-4.43.18-.38-.94,5.8-4,5.36-5.66-.29-1.14-3.5-1.15-6.82-1.17-5.13,0-7.13.73-7.84-.41-1.12-1.77,2.49-5.72,2-6.24s-7.3,4.08-11.74,12.09c-2.47,4.46-5.41,9.76-3.36,14.47,1.67,3.8,6.24,6.41,9.62,5.41,2.06-.61,2-2.06,5.21-4.75a24.35,24.35,0,0,1,9.63-4.93C260.65,118.06,263.78,120,264.52,118.48Z" transform="translate(-76.99 -37.62)"/><circle class="cls-5" cx="110.01" cy="89.38" r="4"/><circle class="cls-5" cx="174.51" cy="90.88" r="3.5"/><path class="cls-6" d="M163.5,313.5" transform="translate(-76.99 -37.62)"/><path class="cls-7" d="M136.5,304.5a245.28,245.28,0,0,1-23.58-16,11,11,0,0,1-3.36-4c-1.23-2.71-.64-5.14,3.36-15,3.5-8.64,4.65-10.74,6.71-11,1.84-.23,3.41,1.13,4.47,2,3.46,2.82,13.44,7.45,22.4,11" transform="translate(-76.99 -37.62)"/><path class="cls-7" d="M108.5,283.5a108.33,108.33,0,0,1-15-14c-2.65-3-3.48-4.29-4-6-2.54-8.3,1.36-20.35,6-20a16.51,16.51,0,0,1,6,3c8.18,7.36,15,7.31,16.5,11.5.68,1.91-2.31,2.68-4.5,9.5C111.55,273.58,109.87,279,108.5,283.5Z" transform="translate(-76.99 -37.62)"/><path class="cls-7" d="M238.51,310.49a203.64,203.64,0,0,0,20.77-7.75,8.18,8.18,0,0,0,3.17-2.3c1.32-1.72,1.16-3.5-.77-10.94-1.69-6.53-2.34-8.16-3.94-8.64a5.46,5.46,0,0,0-3.81.75c-3.11,1.47-11.63,3.25-19.2,4.44" transform="translate(-76.99 -37.62)"/><path class="cls-8" d="M263.19,299.77c5.73-2.9,5.84-2.56,8.73-4.79,2.32-1.79,2.54-1.59,3.12-2.73,2.82-5.51,3.48-18.32-.07-18.61-.78-.07-1.23.29-2.49,1.05-7,4.19-12.13,3.36-13.71,6.12-.73,1.25,1.45,2.14,2.37,7.17C262,292.47,262.64,296.44,263.19,299.77Z" transform="translate(-76.99 -37.62)"/><path class="cls-7" d="M249.35,313.46c5.21-31-17.38-58.3-47-64.26S143.77,263,137.66,293.29s15.83,60.82,45.45,66.79S244.22,344,249.35,313.46Z" transform="translate(-76.99 -37.62)"/><path class="cls-9" d="M241.39,312.47c4.5-26.73-14.89-50.25-40.34-55.37s-50.34,11.91-55.6,38,13.56,52.43,39,57.55S237,338.76,241.39,312.47Z" transform="translate(-76.99 -37.62)"/><path d="M212.55,307.49c2.89,2.13,3.25,6.48,3.36,7.83a15.37,15.37,0,0,1-1.56,7.85,12.57,12.57,0,0,1-4,5.3,11.49,11.49,0,0,1-5.3,2c-4.7.67-7.64-1.33-8.87.23-.26.32-.31.62-.39,2-.4,6.11.1,7.06-.62,8-1.71,2.33-7.93,1.47-8.68-.75-.18-.54,0-1,.39-2,1.62-4.31,2.74-7.3,1.75-8.83-.79-1.22-3-1.53-3.77-.77a2.48,2.48,0,0,0-.39,2c.29,4.69.49,7.86-.81,9a4.2,4.2,0,0,1-3.22,1.38c-.86-.05-3.78-.25-4.52-1.94-.37-.85.32-2.33,1-4.9.6-2.35,1.29-5.05.22-6.08a2.4,2.4,0,0,0-1.88-.39c-1.86.12-7.58.49-9.43-1.92s-.31-7.29,1.55-7.85c.55-.16.9.12,1.89.39a9.69,9.69,0,0,0,4.91,0q1.68-13.42,3.37-26.86A2.85,2.85,0,0,0,177,289c-.51-.53-1.17-.5-2.83-.58-4.09-.19-4.59-.62-4.72-1a1.29,1.29,0,0,1,.2-1c1.74-3.37,0-7.82,1.75-8.83.52-.3.89,0,2.83.58,3,.94,7.36,2.3,8.68.76.2-.23.29-.48.39-2,.34-5-.35-7.44.62-8,.39-.25.78,0,1.88.38,4.15,1.42,4.66-.07,5.66,1.16,1.38,1.7,1.11,4.31.52,7.25-.05.28-.79,2.05-.58,2.94a2.17,2.17,0,0,0,.75,1.18,2,2,0,0,0,1.88.38c1.54-.64,1.42-4.82,1.37-6.86-.09-3-.59-4.79,0-5.1s2.83.58,4.71,1c2.77.57,2.78-1.13,4-.21.87.69.45,2.73,0,5.1-.82,4-2.19,5.91-1.37,6.87.39.44.95.32,1.89.38,3.58.22,6.23,2.65,7.15,3.5a14.38,14.38,0,0,1,3.74,5.87,12,12,0,0,1,.72,6.27c-.65,3.71-3.37,7.27-5.33,7.08" transform="translate(-76.99 -37.62)"/><path class="cls-7" d="M190.26,289.69l-1.15,10.62c.82.38,5.7,2.51,9.92.11.54-.31,3.23-1.44,3.12-4a7,7,0,0,0-3.18-5A13.63,13.63,0,0,0,190.26,289.69Z" transform="translate(-76.99 -37.62)"/><path class="cls-7" d="M187.81,308.75l-1.14,10.62c.82.37,5.69,2.5,9.91.1.55-.31,3.73-2.12,3.62-4.72-.09-2.13-2.34-3.51-3.68-4.32A13.63,13.63,0,0,0,187.81,308.75Z" transform="translate(-76.99 -37.62)"/><path class="cls-10" d="M113.5,280.5c-.34-.14.18-1.84,3-11,1.26-4.12,1.7-5.55,3-6s2.38.7,7,3c4,2,6.1,2.51,6,3-.17.82-5.93-1.45-11,1C115.63,273.34,114.21,280.79,113.5,280.5Z" transform="translate(-76.99 -37.62)"/><path class="cls-11" d="M273,331" transform="translate(-76.99 -37.62)"/><path class="cls-10" d="M92,261a14.36,14.36,0,0,1,0-7,9,9,0,0,1,3-5,3.55,3.55,0,0,1,2-1c1.73-.09,2.26,1.81,5,3,1.79.77,2.94.56,3,1,.1.75-3.39.91-6,3-4.6,3.67-3.62,11-5,11C93,266,92.21,262.05,92,261Z" transform="translate(-76.99 -37.62)"/><path class="cls-10" d="M142,284.47c-.24-.15,3.6-8.84,11.59-17.05a71.77,71.77,0,0,1,9.82-8.22c5.51-4,8.48-5.35,10.4-6.06,3.49-1.3,7.29-2,7.46-1.56s-3,1.67-8,4.5a102.94,102.94,0,0,0-11.78,7.83,81.67,81.67,0,0,0-9.82,8.22C145,278.76,142.18,284.59,142,284.47Z" transform="translate(-76.99 -37.62)"/><path class="cls-12" d="M149.81,298.8c.07-1.45.11-2.41.21-3.38A32,32,0,0,1,154,283.31c4.57-8.08,12.72-13.47,13.75-12.53.49.45-.69,2.35-2,4.7,0,0-4.62,8.48-8.66,22.74-4.22,14.88-.56,25.83-2.2,26.08-1.44.22-4.63-8.22-5.07-15.3C149.69,307.25,149.6,303.29,149.81,298.8Z" transform="translate(-76.99 -37.62)"/><path class="cls-13" d="M295,332" transform="translate(-76.99 -37.62)"/></svg>